<?xml version="1.0" standalone="no"?>
<!DOCTYPE svg PUBLIC "-//W3C//DTD SVG 20010904//EN"
 "http://www.w3.org/TR/2001/REC-SVG-20010904/DTD/svg10.dtd">
<svg version="1.0" xmlns="http://www.w3.org/2000/svg"
 width="650.000000pt" height="650.000000pt" viewBox="0 0 650.000000 650.000000"
 preserveAspectRatio="xMidYMid meet">

<g transform="translate(0.000000,650.000000) scale(0.100000,-0.100000)"
fill="#a7beba" stroke="none">
<path d="M5780 6051 c-52 -9 -198 -66 -221 -87 -8 -8 -20 -14 -26 -14 -5 0
-18 -9 -28 -20 -10 -11 -22 -20 -26 -20 -12 0 -177 -125 -222 -168 -124 -118
-274 -372 -318 -537 -49 -188 -58 -288 -39 -460 27 -248 55 -337 181 -565 29
-52 61 -113 72 -135 11 -22 31 -58 46 -80 47 -73 68 -119 91 -195 12 -41 26
-85 31 -98 5 -13 9 -54 9 -92 0 -62 -2 -69 -22 -76 -24 -7 -28 -3 -138 133
-30 37 -68 79 -84 93 -16 14 -57 50 -92 82 -74 65 -195 147 -309 208 -44 23
-84 46 -90 50 -17 13 -187 100 -196 100 -18 0 -356 172 -409 208 -59 40 -102
95 -93 118 10 28 37 33 118 22 44 -5 113 -7 154 -5 82 6 119 25 135 70 8 23 6
31 -18 56 -53 55 -123 71 -313 71 -116 0 -163 3 -171 13 -19 23 -44 117 -38
141 4 17 15 26 38 31 153 32 433 155 470 206 24 32 11 72 -31 94 -34 17 -165
21 -203 6 -13 -5 -50 -15 -83 -21 -33 -7 -92 -28 -131 -46 -113 -54 -140 -45
-163 56 -20 88 -67 234 -81 255 -4 6 -22 48 -40 95 -33 87 -112 263 -130 290
-6 8 -14 24 -19 35 -5 11 -27 39 -50 63 -38 39 -45 42 -92 42 -50 0 -54 -2
-108 -59 -31 -32 -65 -63 -75 -69 -11 -5 -93 -83 -183 -173 l-164 -164 -142
-1 c-192 -2 -452 -22 -634 -50 -39 -6 -45 -3 -93 37 -27 24 -73 74 -100 112
-28 37 -55 67 -61 67 -6 0 -56 44 -112 99 -107 103 -132 121 -167 121 -48 0
-76 -31 -135 -149 -32 -64 -68 -132 -80 -151 -17 -29 -43 -84 -95 -205 -5 -11
-19 -51 -31 -90 -12 -38 -25 -79 -29 -90 -15 -39 -28 -81 -40 -135 -7 -30 -17
-62 -21 -70 -4 -8 -13 -43 -20 -78 -8 -44 -18 -66 -32 -73 -19 -11 -76 -5
-106 11 -18 10 -169 47 -221 54 -19 2 -57 10 -85 16 -80 18 -287 3 -352 -26
-39 -17 -54 -29 -59 -49 -8 -34 11 -70 54 -103 34 -26 36 -26 199 -24 151 2
167 0 193 -18 15 -11 43 -20 62 -20 18 0 57 -9 86 -20 29 -11 76 -20 105 -20
78 0 94 -26 60 -97 -19 -40 -38 -49 -131 -62 -93 -14 -178 -34 -267 -65 -41
-14 -82 -26 -91 -26 -9 0 -29 -11 -46 -25 -16 -14 -36 -25 -44 -25 -26 0 -91
-38 -113 -66 -25 -31 -27 -64 -6 -103 17 -34 53 -45 92 -30 15 6 54 18 87 25
32 8 72 24 88 35 16 12 48 23 71 26 23 3 47 10 53 15 7 5 36 11 65 15 30 3 66
12 81 19 73 37 118 5 100 -70 -56 -222 -64 -1098 -13 -1411 5 -33 14 -91 20
-130 6 -38 15 -92 21 -120 5 -27 12 -72 15 -100 6 -47 15 -92 35 -175 4 -19
13 -60 20 -90 14 -67 28 -134 40 -180 8 -32 13 -54 39 -172 6 -24 15 -74 22
-113 6 -38 19 -90 27 -115 8 -25 18 -61 23 -80 4 -19 12 -51 17 -70 33 -115
42 -153 42 -168 0 -31 128 -276 175 -335 25 -32 64 -70 85 -85 56 -38 53 -65
-7 -96 -27 -13 -68 -41 -93 -63 -76 -65 -155 -122 -203 -146 -25 -13 -73 -48
-107 -78 -156 -137 -180 -162 -180 -186 0 -15 6 -23 18 -23 9 0 80 43 157 96
77 52 170 115 206 139 36 24 71 51 78 59 8 9 18 16 23 16 5 0 30 15 54 33 25
17 78 55 117 84 40 28 102 67 140 87 37 19 80 44 96 55 16 12 38 21 49 21 32
0 82 -21 82 -35 0 -18 -46 -61 -83 -76 -17 -7 -70 -42 -117 -77 -46 -35 -94
-68 -105 -72 -11 -5 -54 -38 -95 -74 -41 -36 -104 -85 -140 -110 -87 -58 -130
-111 -130 -156 0 -44 59 -16 160 76 19 18 51 40 70 51 55 30 118 71 125 83 4
7 51 41 104 76 53 35 115 79 137 97 42 32 188 148 212 168 27 23 9 44 -41 47
-43 3 -48 6 -61 37 -14 33 -24 39 -81 47 -12 2 -21 12 -23 26 -5 35 45 51 136
42 82 -8 96 -19 107 -83 4 -21 14 -43 22 -50 8 -7 36 -31 62 -54 35 -31 57
-43 79 -43 17 0 52 -5 79 -11 56 -13 133 5 193 45 19 13 53 35 75 49 27 16 53
46 79 91 47 79 85 111 124 102 15 -4 60 -13 99 -20 40 -7 76 -15 80 -19 3 -4
1 -18 -6 -30 -9 -16 -57 -45 -144 -87 -85 -40 -148 -77 -178 -105 -28 -27 -65
-48 -100 -59 -81 -26 -118 -45 -179 -90 -68 -51 -120 -86 -125 -86 -13 0 -98
-66 -146 -113 -63 -62 -81 -104 -53 -124 22 -16 42 -5 112 58 29 27 64 54 77
61 13 7 63 36 112 64 48 28 109 58 135 67 44 14 69 32 161 108 18 15 48 35 67
46 19 10 54 31 77 46 23 15 69 40 102 56 78 38 195 125 209 156 26 56 165 63
186 10 10 -26 -6 -46 -51 -66 -51 -22 -79 -42 -163 -116 -33 -29 -66 -53 -75
-53 -19 0 -207 -124 -318 -210 -32 -25 -77 -60 -100 -77 -23 -18 -47 -33 -53
-33 -5 0 -23 -13 -38 -29 -20 -21 -26 -35 -21 -50 12 -40 46 -36 141 19 88 51
108 65 215 146 30 23 72 50 94 62 22 11 51 32 64 46 14 14 28 26 32 26 5 0 28
14 51 30 24 17 54 38 68 48 28 19 124 95 219 174 l65 53 85 -2 c129 -4 147
-38 50 -92 -24 -13 -62 -36 -83 -50 -21 -14 -46 -30 -56 -36 -47 -28 -149
-106 -195 -147 -28 -26 -78 -63 -110 -83 -67 -40 -125 -106 -125 -142 0 -43
27 -38 90 17 33 29 104 81 158 116 111 72 288 196 335 235 18 15 51 36 74 47
49 25 55 38 37 74 -8 15 -11 33 -8 41 6 16 62 27 104 22 14 -2 64 -4 113 -4
79 -1 87 -3 87 -20 0 -22 -41 -59 -108 -98 -54 -32 -153 -105 -172 -127 -7 -9
-16 -16 -21 -16 -11 0 -118 -80 -174 -129 -23 -20 -62 -50 -87 -68 -58 -39
-72 -63 -54 -89 13 -17 17 -16 87 21 41 21 93 54 115 74 98 86 173 140 274
200 30 18 84 54 120 81 36 27 75 56 88 65 16 12 22 26 22 56 0 48 20 59 95 52
32 -3 79 3 132 16 45 12 104 21 132 21 28 0 89 9 136 20 47 11 100 20 117 20
17 0 58 13 92 29 34 16 99 46 146 67 146 63 154 68 195 94 105 66 279 218 321
280 13 19 40 55 58 80 19 25 35 50 35 56 1 6 10 19 20 28 17 16 74 122 115
217 16 37 58 78 143 139 79 57 170 141 210 195 20 27 54 69 74 93 21 23 47 64
59 90 12 26 35 65 50 87 15 22 46 78 69 125 24 47 47 93 52 102 5 10 9 24 9
31 0 7 13 40 28 73 16 32 32 75 35 94 4 19 12 55 18 80 24 102 54 358 52 450
-3 131 -29 412 -42 445 -20 50 -31 94 -31 123 0 28 -23 84 -116 289 -8 18 -19
35 -24 38 -17 11 -188 368 -205 429 -13 47 -14 68 -6 108 6 27 11 68 11 90 0
23 4 55 9 72 5 17 15 51 22 76 7 25 20 63 30 85 10 22 38 90 64 150 26 61 53
124 60 140 59 137 70 256 34 359 -32 90 -70 139 -137 174 -30 15 -171 23 -232
13z m143 -192 c32 -17 37 -28 37 -84 0 -66 -66 -259 -119 -351 -48 -81 -93
-208 -117 -326 -23 -113 -14 -251 27 -395 34 -120 67 -201 170 -411 100 -203
144 -339 169 -527 6 -49 16 -120 21 -157 32 -231 -34 -628 -141 -850 -74 -154
-152 -293 -184 -328 -18 -19 -44 -52 -59 -72 -15 -20 -36 -40 -47 -43 -40 -13
-48 9 -54 143 -6 122 -15 221 -34 362 -9 67 -12 77 -42 145 -9 22 -20 54 -24
70 -4 17 -23 63 -43 104 -39 83 -39 100 1 185 39 84 46 114 46 215 0 97 -22
222 -55 316 -39 110 -148 319 -225 430 -19 28 -45 73 -59 100 -13 28 -32 61
-41 75 -15 23 -29 63 -46 135 -12 46 -9 384 3 440 6 28 18 73 27 100 9 28 21
66 27 85 6 19 36 87 67 149 54 109 64 122 182 240 108 108 139 133 220 176
140 74 243 100 293 74z m-2679 -152 c19 -14 104 -212 187 -437 53 -141 99
-271 99 -277 0 -2 -19 -24 -42 -49 -35 -38 -41 -52 -42 -89 -1 -54 9 -65 70
-76 56 -11 80 -30 89 -71 8 -36 -21 -73 -65 -82 -53 -10 -61 -57 -19 -110 17
-22 29 -26 70 -26 68 0 84 -11 118 -78 18 -35 52 -78 89 -112 72 -65 127 -110
136 -110 4 0 34 -17 69 -38 34 -20 100 -56 147 -79 295 -144 363 -177 428
-212 41 -22 81 -46 90 -54 10 -8 22 -16 27 -18 37 -14 166 -120 260 -214 134
-135 211 -238 275 -370 60 -124 155 -404 171 -505 16 -100 16 -477 -1 -555 -6
-33 -23 -82 -36 -108 -13 -27 -36 -79 -50 -115 -42 -104 -93 -193 -138 -242
-22 -25 -52 -58 -66 -75 -31 -37 -165 -155 -176 -156 -5 0 -29 -16 -54 -34
-44 -34 -141 -85 -160 -85 -5 0 -25 -9 -45 -20 -20 -11 -44 -20 -55 -20 -10 0
-21 -4 -24 -9 -3 -5 -18 -12 -33 -15 -52 -13 -98 -25 -138 -36 -44 -13 -105
-25 -205 -40 -36 -6 -213 -14 -393 -19 -180 -5 -362 -13 -402 -16 -61 -6 -80
-4 -100 9 -36 23 -32 60 11 112 46 57 103 89 200 114 43 11 85 28 92 37 6 9
12 34 12 56 0 52 -37 88 -115 112 -96 29 -125 48 -216 137 -71 69 -93 98 -128
170 -23 48 -44 102 -46 120 -24 192 -26 234 -15 297 31 180 76 312 137 404 15
23 35 55 43 71 29 56 129 142 230 198 97 53 180 76 327 91 144 15 183 30 183
72 0 13 -14 40 -32 60 l-31 36 -126 -4 c-201 -7 -247 -19 -397 -96 -82 -42
-114 -66 -180 -134 -76 -78 -124 -138 -124 -154 0 -4 -11 -19 -25 -33 -31 -32
-112 -180 -146 -265 -4 -11 -13 -45 -20 -75 -6 -30 -15 -68 -20 -84 -13 -42
-11 -321 2 -370 6 -22 17 -54 24 -71 7 -16 16 -40 19 -52 13 -42 74 -159 90
-172 9 -7 16 -19 16 -25 0 -20 133 -144 170 -160 20 -8 44 -24 54 -35 17 -19
17 -22 3 -44 -9 -14 -44 -38 -79 -55 -71 -35 -122 -99 -111 -141 8 -32 -15
-71 -44 -71 -19 0 -23 5 -23 29 0 16 7 36 15 45 8 8 15 23 15 34 0 10 11 29
25 42 26 24 25 43 -1 33 -21 -8 -104 -94 -104 -108 0 -19 -55 -65 -77 -65 -28
0 -46 24 -38 51 4 12 30 47 59 79 133 149 152 190 86 180 -8 -1 -36 -24 -62
-51 -26 -27 -53 -49 -60 -49 -30 -1 -108 -96 -108 -132 0 -21 -42 -68 -60 -68
-37 0 -43 34 -19 118 12 42 23 106 25 142 2 36 8 94 14 130 6 36 13 117 16
180 5 109 4 117 -18 150 -48 71 -88 45 -108 -70 -7 -41 -21 -100 -31 -131 -11
-30 -19 -68 -19 -84 0 -15 -4 -44 -9 -64 -5 -20 -14 -67 -21 -106 -22 -141
-61 -260 -110 -340 -22 -36 -40 -69 -40 -73 0 -11 -81 -88 -107 -101 -12 -6
-44 -11 -72 -11 -56 0 -87 20 -95 62 -23 114 -40 326 -67 853 -15 306 -32 444
-58 494 -16 29 -57 51 -95 51 -65 0 -65 1 -54 -415 5 -217 13 -385 20 -408 8
-27 8 -43 0 -62 -7 -15 -8 -25 -2 -25 6 0 10 -18 10 -39 0 -22 5 -43 11 -47
17 -10 -5 -108 -45 -193 -12 -26 -72 -49 -87 -34 -5 5 -11 81 -13 169 -4 146
-9 201 -37 380 -5 34 -9 82 -9 108 0 88 -51 137 -106 101 -33 -22 -38 -54 -25
-164 15 -123 16 -583 2 -610 -6 -11 -11 -27 -11 -35 0 -9 -9 -36 -21 -60 -34
-74 -92 -69 -150 12 -29 41 -80 168 -98 247 -17 70 -27 109 -50 190 -21 73
-52 201 -71 295 -12 56 -23 101 -40 168 -56 221 -100 434 -121 592 -6 47 -18
126 -26 175 -51 303 -61 880 -23 1285 22 239 22 241 58 320 11 23 17 66 18
128 1 78 4 96 21 115 34 37 43 63 43 128 0 64 8 96 86 340 51 158 92 265 141
364 19 39 42 86 51 105 25 52 55 52 100 0 21 -22 67 -72 104 -110 37 -38 85
-94 108 -125 56 -76 92 -98 150 -90 25 3 88 10 140 15 52 5 127 14 165 20 113
16 401 34 512 32 l101 -2 44 37 c59 52 306 303 341 347 31 39 44 43 71 23z"/>
<path d="M2963 5056 c-43 -24 -66 -51 -99 -120 -56 -114 -45 -224 28 -292 70
-66 164 -67 263 -1 56 36 86 83 105 161 32 135 -80 268 -223 265 -29 -1 -62
-7 -74 -13z"/>
<path d="M1488 4996 c-43 -19 -86 -66 -112 -121 -33 -68 -38 -98 -30 -162 14
-115 116 -203 202 -174 97 33 142 70 182 150 27 55 30 152 5 202 -31 60 -40
68 -138 108 -35 14 -74 13 -109 -3z"/>
<path d="M2215 4831 c-35 -15 -62 -54 -69 -98 -10 -66 -23 -91 -56 -108 -42
-22 -78 -4 -107 55 -29 58 -61 75 -109 58 -48 -17 -57 -39 -49 -107 10 -83 51
-138 142 -188 54 -30 195 -2 250 49 33 31 78 28 137 -10 65 -41 139 -44 218
-8 76 35 105 72 128 162 17 68 2 110 -48 131 -54 23 -122 -4 -122 -49 0 -10
-7 -32 -15 -48 -33 -64 -101 -27 -148 80 -13 30 -31 61 -40 68 -20 17 -86 25
-112 13z"/>
<path d="M2918 1603 c-51 -54 -82 -106 -83 -143 -2 -48 19 -38 68 32 27 38 60
80 73 93 28 28 31 50 8 59 -9 3 -17 6 -18 6 -1 0 -22 -21 -48 -47z"/>
<path d="M5225 1270 c-65 -64 -110 -100 -160 -125 -83 -43 -168 -107 -197
-149 -37 -53 -106 -117 -157 -145 -27 -14 -85 -53 -129 -86 -45 -33 -100 -71
-124 -85 -23 -14 -74 -55 -113 -91 -39 -36 -81 -71 -92 -78 -27 -14 -38 -47
-23 -66 7 -8 16 -15 19 -15 9 0 149 92 221 146 47 35 91 63 168 109 142 84
498 360 662 513 63 59 79 80 82 108 4 30 1 34 -19 34 -13 0 -23 5 -23 10 0 25
-32 3 -115 -80z"/>
<path d="M5625 1314 c-16 -7 -55 -34 -85 -59 -30 -25 -73 -53 -95 -64 -22 -10
-51 -31 -65 -46 -14 -15 -43 -41 -65 -57 -22 -16 -63 -51 -90 -78 -51 -48
-178 -147 -270 -209 -27 -19 -69 -50 -92 -70 -97 -82 -121 -100 -188 -144 -92
-59 -115 -81 -115 -111 0 -49 41 -42 130 23 30 22 98 69 150 106 119 82 202
146 289 221 20 17 52 39 71 49 19 9 53 34 75 55 22 21 69 57 105 81 36 23 82
58 102 76 43 37 101 77 167 113 25 14 54 40 64 58 19 31 19 34 2 52 -21 23
-48 24 -90 4z"/>
<path d="M5965 1304 c-27 -15 -70 -45 -95 -68 -50 -45 -82 -66 -105 -66 -8 0
-29 -13 -47 -28 -18 -16 -51 -39 -73 -52 -22 -13 -53 -35 -70 -50 -41 -37
-211 -153 -261 -178 -23 -12 -44 -28 -47 -36 -4 -9 -30 -32 -59 -51 -163 -108
-341 -267 -336 -299 5 -37 35 -29 97 28 33 30 83 67 112 81 28 15 79 48 113
74 34 25 87 64 119 86 32 22 75 52 95 67 87 65 377 258 412 275 27 13 97 62
110 78 14 17 67 45 86 45 16 0 74 48 74 61 0 15 -47 59 -62 59 -7 -1 -35 -12
-63 -26z"/>
<path d="M6285 1257 c-11 -7 -36 -24 -55 -38 -19 -15 -54 -36 -77 -48 -23 -11
-62 -34 -86 -51 -25 -16 -49 -30 -55 -30 -5 0 -15 -7 -22 -15 -7 -9 -29 -23
-49 -32 -20 -9 -73 -45 -119 -80 -46 -35 -105 -73 -130 -84 -26 -12 -63 -36
-82 -54 -35 -33 -80 -66 -180 -132 -30 -20 -97 -72 -148 -116 -78 -66 -93 -84
-90 -105 4 -36 21 -37 60 -4 18 16 58 42 88 57 30 15 69 39 85 54 30 28 137
105 210 152 22 14 86 56 141 92 56 37 105 67 109 67 4 0 32 18 63 39 49 34 81
54 163 106 9 5 47 31 85 56 38 25 88 56 112 68 37 19 42 25 42 56 0 24 -6 37
-19 45 -22 11 -20 12 -46 -3z"/>
<path d="M4585 989 c-27 -21 -64 -46 -82 -54 -18 -9 -35 -20 -38 -25 -3 -5
-32 -26 -63 -47 -31 -20 -91 -66 -132 -103 -75 -66 -90 -78 -232 -184 -79 -59
-92 -75 -82 -101 11 -27 61 -18 101 18 34 30 136 97 148 97 7 0 88 59 150 110
60 49 140 107 225 163 86 57 150 110 150 123 0 16 -51 44 -77 43 -10 0 -40
-18 -68 -40z"/>
<path d="M975 974 c-107 -56 -264 -169 -274 -197 -13 -34 5 -60 38 -54 25 5
144 79 181 112 9 8 40 27 70 43 58 31 88 68 77 95 -8 21 -52 21 -92 1z"/>
<path d="M4129 890 c-30 -22 -59 -40 -65 -40 -7 0 -38 -19 -70 -43 -33 -23
-72 -51 -88 -62 -62 -42 -87 -63 -175 -137 -50 -43 -95 -78 -100 -78 -17 0
-51 -52 -51 -76 0 -13 4 -24 9 -24 25 0 235 138 301 198 26 23 50 42 54 42 4
0 28 15 53 33 83 59 157 106 211 132 58 29 67 53 30 79 -34 24 -51 20 -109
-24z"/>
<path d="M1105 857 c-11 -7 -39 -28 -62 -47 -93 -78 -227 -172 -307 -217 -43
-24 -69 -60 -62 -87 11 -44 19 -40 211 87 22 15 60 43 85 61 25 19 48 35 52
35 4 1 31 19 60 41 29 22 58 40 64 40 20 0 77 68 71 84 -8 19 -82 21 -112 3z"/>
<path d="M2016 729 c-27 -10 -61 -29 -75 -42 -14 -13 -42 -35 -61 -48 -37 -26
-41 -29 -115 -74 -27 -16 -86 -66 -131 -109 -46 -43 -94 -84 -106 -90 -27 -13
-52 -61 -44 -82 10 -25 51 -15 86 21 19 20 77 65 130 101 52 35 115 80 140 99
25 19 70 51 100 72 97 66 160 125 160 150 0 28 -16 28 -84 2z"/>
</g>
</svg>
